<?xml version="1.0" standalone="no"?>
<!DOCTYPE svg PUBLIC "-//W3C//DTD SVG 20010904//EN"
 "http://www.w3.org/TR/2001/REC-SVG-20010904/DTD/svg10.dtd">
<svg version="1.0" xmlns="http://www.w3.org/2000/svg"
 width="260.000000pt" height="260.000000pt" viewBox="0 0 260.000000 260.000000"
 preserveAspectRatio="xMidYMid meet">
<metadata>
Created by potrace 1.14, written by Peter Selinger 2001-2017
</metadata>
<g transform="translate(0.000000,260.000000) scale(0.100000,-0.100000)"
fill="#000000" stroke="none">
<path d="M310 2464 c0 -5 5 -15 12 -22 9 -9 9 -12 -1 -12 -7 0 -9 -4 -6 -10 3
-5 1 -10 -5 -10 -7 0 -10 6 -7 13 3 8 1 20 -5 28 -8 11 -9 10 -4 -3 3 -10 1
-18 -4 -18 -6 0 -10 6 -10 13 0 9 -2 9 -9 -1 -11 -19 -24 -17 -32 5 -7 17 -8
17 -8 1 -1 -18 -31 -25 -45 -11 -3 4 -13 8 -22 9 -11 2 -12 -1 -4 -11 7 -8 7
-15 1 -19 -10 -7 -9 -31 2 -42 4 -4 2 -12 -3 -19 -7 -8 -6 -12 3 -12 7 0 13
11 13 23 0 12 -3 21 -6 19 -4 -2 -7 2 -7 9 0 11 4 12 18 3 10 -6 15 -14 11
-17 -4 -3 -8 -14 -7 -25 0 -14 -8 -21 -25 -24 l-25 -3 30 -14 c17 -8 22 -12
12 -9 -10 3 -15 1 -12 -5 3 -6 0 -10 -7 -10 -9 0 -9 -3 2 -10 13 -9 13 -10 0
-10 -9 0 -11 -3 -5 -8 15 -11 19 -46 4 -36 -8 4 -10 3 -5 -4 4 -7 2 -12 -6
-12 -7 0 -3 -7 9 -15 14 -10 20 -21 16 -32 -4 -10 -2 -14 4 -10 7 4 10 1 9 -8
-2 -15 -16 -19 -26 -8 -3 4 1 3 9 -2 10 -5 12 -4 7 4 -4 6 -11 9 -16 6 -9 -6
-8 -24 3 -42 4 -6 3 -14 -2 -17 -5 -4 -12 0 -14 6 -4 9 -6 10 -6 1 -1 -18 20
-27 29 -12 5 7 6 17 4 21 -3 4 0 8 5 8 14 0 14 -6 1 -30 -8 -15 -6 -22 7 -30
17 -11 17 -11 1 -6 -10 3 -18 1 -18 -5 0 -6 -6 -7 -12 -3 -10 6 -10 4 0 -8 8
-10 9 -19 3 -22 -5 -3 -12 0 -14 6 -4 9 -6 10 -6 1 -1 -18 20 -27 29 -12 5 7
6 17 4 21 -3 4 0 8 5 8 14 0 14 -6 1 -30 -8 -15 -6 -21 7 -29 10 -6 13 -11 6
-11 -7 0 -10 -9 -8 -21 3 -12 1 -18 -3 -15 -4 4 -7 17 -7 28 0 12 -7 23 -15
25 -12 4 -12 3 -2 -5 16 -11 15 -21 -1 -41 -9 -12 -9 -13 1 -7 7 4 12 1 12 -9
0 -9 4 -14 8 -11 4 2 8 -28 8 -69 0 -60 -3 -72 -16 -68 -11 3 -10 1 3 -10 17
-14 16 -16 -10 -25 -17 -7 -21 -11 -10 -11 18 -1 19 -20 2 -34 -6 -5 -4 -7 5
-4 8 2 14 14 14 25 -1 12 2 22 6 22 4 0 7 -13 6 -29 0 -16 -4 -27 -8 -25 -5 3
-8 1 -8 -5 0 -6 -8 -8 -17 -5 -14 5 -15 4 -4 -4 8 -6 20 -8 28 -5 7 3 13 0 13
-7 0 -6 -4 -8 -10 -5 -5 3 -10 1 -10 -6 0 -10 -3 -10 -12 -1 -7 7 -17 12 -22
12 -6 0 0 -7 12 -16 17 -12 20 -19 12 -34 -12 -23 -13 -30 -2 -30 5 0 9 7 10
15 1 8 3 22 4 30 1 8 5 15 10 15 11 0 10 -7 -2 -30 -8 -15 -6 -22 7 -30 17
-11 17 -11 1 -6 -10 3 -18 1 -18 -5 0 -6 -6 -7 -12 -3 -10 6 -10 4 0 -8 8 -10
9 -19 3 -22 -5 -3 -12 0 -14 6 -4 9 -6 10 -6 1 -1 -18 20 -27 29 -12 5 7 6 17
4 21 -3 4 0 8 5 8 14 0 14 -6 1 -31 -8 -15 -7 -21 5 -25 8 -3 12 -10 9 -15 -8
-13 -24 -11 -21 2 1 6 -5 14 -13 16 -12 4 -12 3 -2 -5 16 -11 15 -21 -1 -41
-9 -12 -9 -13 0 -7 8 4 13 2 13 -4 0 -6 4 -9 9 -6 11 7 8 -20 -3 -31 -4 -4 -6
-2 -4 6 2 7 -4 16 -12 18 -12 4 -12 3 -2 -5 17 -11 17 -22 2 -32 -8 -5 -7 -9
5 -13 11 -5 14 -3 9 6 -4 6 -3 8 1 4 12 -10 15 -37 5 -37 -5 0 -12 5 -15 10
-3 6 -11 10 -18 10 -6 0 -2 -7 10 -15 14 -10 20 -21 16 -32 -4 -9 -2 -14 3
-10 6 3 10 -5 10 -18 0 -14 -2 -22 -5 -19 -4 3 -6 11 -6 16 0 6 -7 13 -15 15
-9 3 -11 1 -5 -4 15 -12 19 -47 4 -37 -8 4 -10 3 -5 -4 4 -7 1 -12 -6 -12 -8
0 -6 -5 5 -11 14 -8 16 -14 6 -25 -6 -8 -8 -14 -3 -14 5 0 2 -5 -6 -10 -11 -7
-11 -10 -2 -10 7 0 10 -5 7 -10 -4 -6 -2 -16 4 -23 6 -8 6 -18 1 -27 -12 -19
-12 -30 -2 -30 5 0 9 7 10 15 1 8 3 22 4 30 1 8 5 15 10 15 11 0 10 -7 -2 -30
-8 -15 -6 -22 7 -30 17 -11 17 -11 1 -6 -10 3 -18 1 -18 -5 0 -6 -6 -7 -12 -3
-10 6 -10 4 0 -8 8 -10 9 -19 3 -22 -5 -3 -12 0 -14 6 -4 9 -6 10 -6 1 -1 -18
20 -27 29 -12 5 7 6 17 4 21 -3 4 0 8 5 8 14 0 14 -6 1 -30 -8 -15 -6 -21 7
-29 10 -6 13 -11 6 -11 -7 0 -10 -9 -8 -21 3 -12 1 -18 -3 -15 -4 4 -7 17 -7
29 0 11 -7 22 -15 24 -9 3 -11 1 -5 -4 13 -10 13 -23 1 -42 -6 -10 -5 -12 2
-7 7 4 12 1 12 -9 0 -9 4 -14 8 -11 5 3 8 -13 8 -34 0 -30 -3 -37 -13 -29 -7
6 -18 9 -25 6 -8 -4 -7 -6 5 -6 17 -1 22 -12 10 -25 -12 -12 -11 -33 2 -33 7
0 12 8 10 19 -2 10 0 18 6 18 13 0 5 -40 -11 -50 -12 -7 -11 -10 5 -16 17 -7
16 -9 -10 -20 -19 -8 -23 -13 -12 -14 18 0 19 -19 2 -33 -6 -5 -4 -7 5 -4 8 2
14 14 14 25 -1 12 2 22 6 22 4 0 7 -13 6 -29 0 -16 -4 -27 -8 -25 -5 3 -8 1
-8 -5 0 -6 -8 -8 -17 -5 -14 5 -15 4 -4 -4 8 -6 20 -8 28 -5 7 3 13 0 13 -7 0
-6 -4 -8 -10 -5 -5 3 -10 1 -10 -6 0 -10 -3 -10 -12 -1 -7 7 -17 12 -22 12 -6
0 0 -7 12 -16 12 -8 19 -20 16 -26 -4 -6 -10 -5 -15 3 -6 10 -9 10 -9 2 0 -18
21 -27 30 -12 5 7 6 17 4 21 -3 4 0 8 5 8 14 0 14 -6 1 -30 -8 -15 -6 -22 7
-30 17 -11 17 -11 1 -6 -10 3 -18 1 -18 -5 0 -6 -6 -7 -12 -3 -10 6 -10 4 0
-8 8 -10 9 -19 3 -22 -5 -3 -12 0 -14 6 -4 9 -6 10 -6 1 -1 -18 20 -27 29 -12
5 7 6 17 4 21 -3 4 0 8 5 8 14 0 14 -6 1 -31 -8 -15 -7 -21 5 -25 8 -3 12 -10
9 -15 -8 -13 -24 -11 -22 2 2 6 -4 14 -12 16 -12 4 -12 3 -2 -5 19 -13 19 -16
2 -37 -9 -11 -10 -16 -3 -11 8 4 13 2 13 -4 0 -6 4 -9 9 -6 11 7 8 -20 -3 -31
-4 -4 -6 -2 -4 6 1 7 -4 16 -12 18 -12 4 -12 3 -2 -5 17 -11 17 -22 2 -32 -8
-5 -7 -9 5 -13 11 -5 14 -3 9 6 -4 6 -3 8 1 4 12 -10 15 -37 5 -37 -5 0 -12 5
-15 10 -3 6 -11 10 -18 10 -6 0 -2 -7 10 -15 14 -10 20 -21 16 -32 -4 -9 -2
-14 3 -11 5 4 10 -14 11 -38 0 -24 -2 -44 -6 -44 -5 0 -8 16 -7 37 1 24 -4 38
-14 40 -9 3 -11 1 -5 -4 14 -11 17 -33 4 -33 -5 0 -7 -5 -4 -10 3 -6 0 -10 -7
-10 -7 0 -2 -7 10 -16 12 -8 20 -19 17 -24 -3 -5 2 -13 11 -18 15 -8 15 -10 0
-15 -9 -4 -16 -15 -16 -26 0 -22 -16 -36 -23 -21 -4 7 -5 6 -4 -1 2 -6 6 -10
11 -9 4 1 13 -5 19 -13 9 -11 18 -12 32 -6 19 9 19 9 -2 5 -13 -2 -24 2 -27
11 -5 11 -2 13 10 9 14 -5 15 -4 4 9 -11 13 -10 14 4 9 9 -3 16 -11 16 -17 0
-6 6 -2 14 8 8 11 13 22 11 25 -2 3 6 6 17 6 20 0 20 0 -1 -14 -11 -8 -21 -22
-20 -31 0 -10 2 -11 6 -3 2 6 9 12 14 12 6 0 8 -4 5 -8 -2 -4 -1 -14 3 -21 6
-9 8 -4 8 14 1 14 6 32 12 38 9 9 10 8 5 -7 -5 -13 -4 -17 4 -12 6 3 14 2 17
-4 4 -6 1 -9 -6 -8 -6 2 -14 -4 -16 -12 -4 -13 -3 -13 6 0 6 8 11 11 11 6 0
-5 6 -3 14 3 11 10 17 8 26 -6 10 -16 11 -16 6 0 -3 9 -1 17 5 17 6 0 7 6 3
13 -6 9 -4 9 7 1 8 -6 22 -10 31 -9 10 2 20 0 23 -5 2 -4 -9 -6 -25 -5 -26 2
-28 0 -19 -16 11 -22 21 -26 13 -5 -4 10 3 13 28 11 18 -2 39 2 47 8 8 7 16
11 18 10 1 -2 11 -3 21 -3 15 1 15 2 -2 15 -11 8 -15 15 -10 15 6 0 15 -5 22
-12 13 -13 42 -20 42 -9 0 4 9 7 20 8 23 2 28 -13 5 -15 -8 -1 -22 -3 -30 -4
-8 -1 -12 -5 -9 -10 4 -5 9 -7 12 -4 3 3 11 1 19 -6 11 -9 12 -7 7 8 -7 18 -6
18 17 -1 18 -15 20 -16 10 -2 -9 12 -10 17 -2 17 6 0 14 -7 18 -16 5 -13 7
-13 14 -2 7 10 11 10 21 -4 10 -12 18 -14 33 -7 19 9 19 9 -2 5 -13 -2 -24 2
-28 12 -9 23 10 36 27 19 13 -13 16 -13 26 4 7 10 18 19 25 19 6 0 4 -5 -5
-11 -10 -5 -18 -18 -17 -27 0 -10 3 -12 6 -4 8 20 22 14 18 -9 -3 -16 -1 -18
9 -10 7 6 16 9 20 6 3 -3 2 1 -4 7 -5 7 -10 19 -9 27 0 11 2 12 6 3 2 -6 10
-9 15 -6 6 4 8 2 4 -4 -3 -6 -2 -13 3 -16 5 -4 13 -1 17 5 5 9 11 6 22 -7 13
-16 14 -17 9 -1 -4 9 -2 17 4 17 6 0 7 6 3 13 -6 9 -4 9 7 1 8 -6 22 -10 31
-9 10 2 20 0 23 -5 2 -4 -8 -6 -24 -5 -22 2 -28 -1 -24 -12 3 -8 9 -11 12 -5
3 5 21 8 38 6 18 -1 35 2 39 7 4 6 11 6 19 -1 10 -8 15 -8 21 1 5 9 10 7 15
-7 7 -17 8 -17 8 -1 1 9 6 17 12 17 5 0 8 4 4 9 -9 15 15 25 28 12 9 -9 7 -10
-7 -5 -13 5 -17 4 -12 -4 10 -16 53 -15 60 1 3 6 4 3 3 -8 -2 -11 -9 -19 -16
-17 -7 1 -10 -2 -6 -7 8 -15 35 -2 35 18 1 12 6 10 23 -10 17 -21 26 -25 42
-18 19 9 19 9 -2 5 -25 -4 -40 21 -22 38 9 8 10 7 4 -3 -6 -11 -4 -13 8 -8 10
4 17 1 17 -6 0 -7 5 -4 11 5 5 10 20 22 32 28 22 11 22 11 0 -6 -13 -9 -23
-24 -22 -33 0 -10 2 -11 6 -3 2 6 9 12 14 12 6 0 8 -4 5 -8 -2 -4 0 -14 5 -22
9 -13 10 -13 8 0 -3 27 2 55 8 42 2 -6 9 -10 13 -7 5 3 12 1 15 -5 4 -6 1 -9
-6 -8 -6 2 -14 -4 -16 -12 -4 -13 -3 -13 6 0 6 8 11 11 11 6 0 -5 6 -3 14 3
11 10 17 8 26 -6 10 -16 11 -16 6 0 -3 9 -1 17 5 17 6 0 7 6 3 13 -6 9 -4 9 7
1 8 -6 22 -10 31 -9 10 2 20 0 23 -5 2 -4 -9 -6 -25 -5 -26 2 -28 0 -19 -16
11 -22 21 -26 13 -5 -4 10 3 13 28 11 18 -2 39 2 47 8 8 7 16 11 18 10 1 -2
11 -3 21 -3 15 1 15 2 -2 15 -11 8 -15 15 -10 15 6 0 15 -5 22 -12 13 -13 42
-20 42 -9 0 4 9 7 21 8 14 1 19 -3 15 -12 -2 -7 3 -19 12 -27 15 -12 16 -11 3
5 -9 11 -10 17 -2 17 6 0 14 -7 18 -16 5 -13 7 -13 14 -2 7 10 11 10 21 -4 10
-12 18 -14 33 -7 19 9 19 9 -2 5 -25 -4 -40 21 -22 38 9 8 10 7 4 -3 -6 -11
-4 -13 8 -8 10 4 17 1 17 -6 0 -6 7 -1 16 11 8 12 21 22 27 22 7 0 4 -5 -5
-11 -10 -5 -18 -18 -17 -27 0 -10 3 -12 6 -4 2 6 9 12 14 12 6 0 8 -4 5 -8 -2
-4 0 -14 5 -22 9 -13 10 -13 8 0 -3 27 2 55 8 42 2 -6 9 -10 13 -7 5 3 12 1
15 -5 4 -6 1 -9 -6 -8 -6 2 -14 -4 -16 -12 -4 -13 -3 -13 6 0 6 8 11 11 11 6
0 -5 6 -3 14 3 11 10 17 8 26 -6 10 -16 11 -16 6 -1 -3 10 -1 18 5 18 6 0 7 6
3 13 -6 9 -4 9 7 1 8 -6 22 -10 31 -9 10 2 20 0 23 -5 2 -4 -9 -6 -25 -5 -26
2 -28 0 -19 -16 11 -22 21 -25 13 -5 -4 11 3 13 30 11 20 -2 38 1 42 6 4 6 10
6 19 -1 9 -8 15 -8 20 0 7 12 8 11 -27 14 -15 2 -25 -1 -22 -6 3 -4 0 -8 -6
-8 -7 0 -10 6 -7 13 3 11 21 13 71 8 8 0 13 -9 11 -18 -1 -10 0 -12 2 -5 3 6
9 12 14 12 6 0 8 4 4 9 -9 15 15 25 28 12 9 -9 8 -11 -6 -5 -10 3 -17 3 -16
-2 1 -5 0 -11 -1 -14 -7 -19 -7 -39 1 -34 5 3 6 10 3 16 -5 8 -1 9 10 5 10 -4
15 -3 11 3 -3 6 3 10 14 10 10 0 22 6 25 13 3 6 4 3 3 -8 -2 -11 -9 -19 -16
-17 -7 1 -10 -2 -6 -7 8 -15 35 -2 35 18 1 12 6 10 23 -10 17 -21 26 -25 42
-18 19 9 19 9 -2 5 -25 -4 -40 21 -22 38 9 8 10 7 4 -3 -6 -11 -4 -13 8 -8 10
4 17 1 17 -6 0 -7 5 -4 11 5 5 10 20 22 32 28 22 11 22 11 0 -6 -13 -9 -23
-24 -22 -33 0 -10 2 -11 6 -3 2 6 9 12 14 12 6 0 8 -4 5 -8 -2 -4 0 -14 5 -22
9 -13 10 -13 8 0 -3 27 2 55 8 42 2 -6 9 -10 13 -7 5 3 12 1 15 -5 4 -6 1 -9
-6 -8 -6 2 -14 -4 -16 -12 -4 -13 -3 -13 6 0 6 8 11 11 11 6 0 -5 6 -3 14 3
11 10 17 8 26 -6 10 -16 11 -16 6 0 -3 9 -1 17 5 17 6 0 7 6 3 13 -6 9 -4 9 7
1 8 -6 22 -10 31 -9 10 2 20 0 23 -5 2 -4 -9 -6 -25 -5 -26 2 -28 0 -19 -16
11 -22 21 -25 13 -5 -4 11 3 13 30 11 20 -2 38 0 41 6 4 5 12 6 18 3 7 -4 8
-3 4 1 -10 12 -38 15 -31 4 3 -5 0 -9 -6 -9 -7 0 -10 6 -7 13 2 6 10 12 18 11
22 -1 49 -15 45 -23 -3 -4 -1 -13 3 -20 5 -7 8 0 9 20 0 18 7 36 14 40 10 7 9
9 -4 9 -10 0 -18 -4 -18 -10 0 -5 -6 -10 -12 -10 -7 1 -2 10 11 20 13 11 18
20 12 20 -6 0 -8 7 -4 17 5 12 3 14 -8 8 -10 -6 -11 -5 -3 4 17 18 42 3 38
-22 -4 -21 -4 -21 5 -2 7 15 4 24 -13 37 -13 11 -25 13 -31 7 -5 -5 -13 -9
-19 -9 -5 0 -1 7 10 15 10 8 15 15 11 15 -4 0 -3 9 3 19 8 16 6 22 -6 29 -14
8 -14 11 7 26 13 9 18 16 12 16 -7 0 -10 7 -6 17 5 12 3 14 -8 8 -10 -6 -11
-5 -3 4 17 18 42 3 38 -22 -4 -21 -4 -21 5 -2 12 27 -26 60 -49 42 -13 -11
-13 -10 -1 6 7 9 10 17 7 17 -4 0 -2 9 4 21 10 17 8 21 -10 26 -21 5 -20 6 7
24 15 11 23 19 16 19 -7 0 -10 7 -6 17 5 12 3 14 -8 8 -10 -6 -11 -5 -3 4 17
18 42 3 38 -22 -4 -21 -4 -21 5 -2 6 14 5 23 -3 30 -7 6 -12 27 -11 48 2 20
-1 37 -5 37 -5 0 -7 -11 -6 -25 2 -16 -1 -22 -8 -18 -6 4 -4 -2 4 -13 8 -10
10 -16 6 -12 -5 4 -16 2 -25 -5 -14 -11 -14 -10 -2 6 7 9 10 17 7 17 -4 0 -2
9 4 19 8 16 6 22 -6 29 -14 8 -14 11 7 26 13 9 18 16 12 16 -7 0 -10 7 -6 17
5 12 3 14 -8 8 -10 -6 -11 -5 -3 4 17 18 42 3 38 -22 -4 -21 -4 -21 5 -2 12
27 -26 60 -49 42 -13 -11 -13 -10 -1 6 7 9 10 17 7 17 -4 0 -2 9 4 21 10 17 8
21 -10 26 -21 5 -20 6 7 24 15 11 23 19 16 19 -7 0 -10 7 -6 17 5 12 3 14 -8
8 -10 -6 -11 -5 -3 4 17 18 42 3 38 -22 -4 -21 -4 -21 5 -2 12 27 -26 60 -49
42 -13 -11 -13 -10 -1 5 7 10 10 18 7 18 -4 0 -2 9 4 19 8 16 6 22 -6 29 -14
8 -14 11 7 26 13 9 18 16 12 16 -7 0 -10 7 -6 17 5 12 3 14 -8 8 -10 -6 -11
-5 -3 4 17 18 42 3 38 -22 -4 -21 -4 -21 5 -2 12 27 -26 60 -49 42 -13 -11
-13 -10 -1 6 7 9 10 17 7 17 -4 0 -2 9 4 21 10 17 8 21 -9 26 -19 5 -18 6 7
28 22 20 25 26 14 37 -11 11 -12 10 -7 -7 6 -16 5 -17 -4 -5 -12 18 0 33 21
25 10 -4 14 -15 12 -28 -4 -21 -4 -21 5 -2 12 27 -26 60 -49 42 -13 -11 -13
-10 -1 6 7 9 10 17 7 17 -4 0 -2 9 4 19 8 16 6 22 -6 29 -14 8 -14 11 7 26 13
9 18 16 12 16 -7 0 -10 7 -6 17 5 12 3 14 -8 8 -10 -6 -11 -5 -3 4 17 18 42 3
38 -22 -4 -21 -4 -21 5 -2 12 27 -26 60 -49 42 -13 -11 -13 -10 -1 6 7 9 10
17 7 17 -4 0 -2 9 4 21 10 17 8 21 -10 26 -21 5 -20 6 7 24 15 11 23 19 16 19
-7 0 -10 7 -6 17 5 12 3 14 -8 8 -10 -6 -11 -5 -3 4 17 18 42 3 38 -22 -4 -21
-4 -21 5 -2 12 27 -26 60 -49 42 -13 -11 -13 -10 -1 6 7 9 10 17 7 17 -4 0 -2
9 4 19 8 16 6 22 -6 29 -14 8 -14 11 7 26 13 9 18 16 12 16 -7 0 -10 7 -6 17
5 12 3 14 -8 8 -10 -6 -11 -5 -3 4 17 18 42 3 38 -22 -4 -21 -4 -21 5 -2 12
27 -26 60 -49 42 -13 -11 -13 -10 -1 6 7 9 10 17 7 17 -4 0 -2 9 4 21 10 17 8
21 -10 26 -21 5 -20 6 7 24 15 11 23 19 16 19 -7 0 -10 7 -6 17 5 12 3 14 -8
8 -10 -6 -11 -5 -3 4 17 18 42 3 38 -22 -4 -21 -4 -21 5 -2 6 14 5 23 -3 30
-7 6 -12 27 -11 48 2 20 -1 37 -5 37 -4 0 -7 -16 -5 -35 1 -19 0 -33 -3 -30
-3 3 -12 -1 -21 -8 -14 -11 -14 -10 -2 6 7 9 10 17 7 17 -4 0 -2 9 4 19 8 16
6 22 -6 29 -14 8 -14 11 7 26 13 9 18 16 12 16 -7 0 -10 7 -6 17 5 12 3 14 -8
8 -10 -6 -11 -5 -3 4 17 18 42 3 38 -22 -4 -21 -4 -21 5 -2 12 27 -26 60 -49
42 -13 -11 -13 -10 -1 6 7 9 10 17 7 17 -4 0 -2 9 4 21 10 17 8 21 -10 26 -21
5 -20 6 7 24 15 11 23 19 16 19 -7 0 -10 7 -6 17 5 12 3 14 -8 8 -10 -6 -11
-5 -3 4 17 18 42 3 38 -22 -4 -21 -4 -21 5 -2 12 27 -26 60 -49 42 -13 -11
-13 -10 -1 6 7 9 10 17 7 17 -4 0 -2 9 4 19 8 16 6 22 -6 29 -14 8 -14 11 7
26 13 9 18 16 12 16 -7 0 -10 7 -6 17 5 12 3 14 -8 8 -10 -6 -11 -5 -3 4 17
18 42 3 38 -22 -4 -21 -4 -21 5 -2 6 14 5 23 -3 30 -7 6 -12 27 -11 48 2 20
-2 37 -7 37 -5 0 -7 -4 -4 -8 2 -4 1 -14 -4 -22 -5 -9 -4 -20 3 -30 6 -8 7
-12 3 -8 -5 4 -16 2 -24 -5 -13 -10 -14 -9 -7 3 10 15 12 21 18 53 2 10 10 23
18 28 8 5 9 9 3 9 -6 0 -14 -3 -18 -7 -10 -11 -36 -12 -36 -2 0 5 -5 9 -11 9
-8 0 -8 -5 1 -15 7 -8 16 -12 21 -9 10 6 12 -9 2 -19 -3 -4 -12 1 -19 11 -10
14 -15 15 -25 5 -16 -16 -29 -17 -29 -2 0 5 4 8 9 4 5 -3 13 0 17 7 4 7 4 10
-1 6 -4 -4 -15 -2 -23 5 -13 9 -14 9 -8 0 4 -7 3 -13 -3 -13 -6 0 -8 -8 -5
-17 5 -17 5 -17 -6 0 -8 13 -15 15 -30 7 -24 -13 -30 -13 -30 1 0 5 4 8 8 5 4
-2 14 -1 21 4 15 9 6 30 -12 30 -8 0 -8 -3 2 -9 8 -5 9 -11 3 -15 -6 -3 -18 4
-26 16 -9 12 -16 18 -16 12 0 -5 5 -15 12 -22 9 -9 9 -12 -1 -12 -7 0 -9 -4
-6 -10 3 -6 1 -10 -5 -10 -7 0 -10 6 -7 13 3 8 1 20 -5 28 -8 11 -9 10 -4 -3
3 -10 1 -18 -5 -18 -6 0 -8 -3 -5 -8 2 -4 -9 -8 -25 -8 -16 -1 -29 2 -29 6 0
4 10 7 22 6 11 0 23 6 25 14 3 9 1 11 -4 5 -14 -17 -33 -16 -33 2 -1 12 -6 7
-15 -12 -7 -16 -14 -24 -14 -17 -1 6 -4 11 -8 11 -20 -3 -34 2 -29 10 7 10
-20 9 -30 -2 -13 -12 -24 -7 -25 11 0 11 -2 12 -6 4 -3 -7 0 -18 6 -25 8 -10
1 -13 -29 -13 -21 0 -37 3 -34 8 3 4 -2 8 -11 8 -10 0 -13 5 -9 12 5 7 3 8 -7
2 -8 -5 -17 -9 -21 -9 -3 0 -10 -3 -14 -7 -3 -4 3 -6 14 -3 12 2 24 0 27 -5 3
-5 -4 -7 -15 -5 -11 2 -20 -2 -20 -8 0 -7 -5 -4 -11 6 -8 13 -14 15 -29 7 -23
-12 -30 -13 -30 -2 0 5 7 9 15 10 8 1 22 3 30 4 8 1 15 5 15 10 0 10 -11 10
-30 -2 -9 -6 -20 -5 -29 3 -12 9 -13 9 -7 0 4 -7 3 -13 -3 -13 -6 0 -8 -8 -5
-17 5 -17 5 -17 -6 0 -8 13 -15 15 -30 7 -23 -12 -30 -13 -30 -2 0 5 7 9 15
10 8 1 22 3 30 4 8 1 15 5 15 10 0 10 -11 10 -30 -2 -9 -5 -19 -5 -27 1 -7 6
-16 8 -22 5 -5 -3 -12 -1 -14 4 -3 6 -4 5 -3 -2 2 -7 12 -12 22 -11 10 1 13 0
6 -3 -6 -3 -9 -10 -6 -16 4 -6 -3 -5 -15 1 -12 7 -27 9 -34 5 -7 -5 -5 1 3 12
14 17 14 18 -2 6 -14 -11 -18 -10 -27 5 -6 11 -11 13 -11 5 0 -7 -5 -10 -12
-6 -7 5 -8 3 -4 -5 10 -15 -25 -11 -37 4 -5 6 -7 4 -4 -5 2 -8 9 -15 15 -15 5
0 13 -2 16 -5 3 -4 -5 -6 -19 -6 -13 0 -21 4 -18 10 4 5 -1 7 -10 3 -11 -4
-22 2 -32 16 -8 12 -15 16 -15 10 0 -7 5 -15 10 -18 6 -3 10 -10 10 -15 0 -10
-27 -7 -37 5 -4 4 -2 5 4 1 9 -5 11 -2 6 9 -4 12 -8 13 -13 5 -10 -15 -21 -15
-32 2 -8 10 -9 10 -5 -2 2 -8 11 -14 18 -12 8 2 10 0 6 -4 -11 -11 -38 -14
-31 -3 3 5 0 9 -6 9 -6 0 -8 5 -4 13 5 7 0 6 -11 -3 -21 -17 -24 -17 -37 2 -8
10 -9 10 -5 -2 2 -8 10 -14 16 -13 13 3 15 -13 2 -21 -5 -3 -12 1 -15 9 -4 12
-10 13 -25 5 -25 -13 -31 -13 -31 1 0 5 4 8 8 5 4 -2 14 -1 21 4 15 9 6 30
-12 29 -9 0 -8 -2 1 -6 6 -2 9 -9 6 -14 -3 -6 -12 -5 -22 3 -12 10 -14 10 -8
1 4 -7 3 -13 -3 -13 -6 0 -8 -8 -5 -17 5 -17 5 -17 -6 0 -8 13 -15 15 -30 7
-24 -13 -30 -13 -30 1 0 5 4 8 8 5 4 -2 14 -1 21 4 15 9 6 30 -12 30 -8 0 -8
-3 2 -9 8 -5 9 -11 3 -15 -6 -3 -18 4 -26 16 -9 12 -16 18 -16 12 0 -5 5 -15
12 -22 9 -9 9 -12 -1 -12 -7 0 -9 -4 -6 -10 3 -5 1 -10 -5 -10 -7 0 -10 6 -7
13 3 8 1 20 -5 28 -8 11 -9 10 -4 -3 3 -10 1 -18 -5 -18 -6 0 -8 -3 -5 -8 2
-4 -9 -8 -25 -8 -16 -1 -29 2 -29 6 0 4 10 7 22 6 11 0 23 6 25 14 3 9 1 11
-4 5 -14 -17 -33 -16 -33 3 -1 10 -6 6 -14 -13 -11 -26 -13 -27 -20 -10 -6 16
-9 17 -16 5 -10 -16 -50 -24 -50 -11 0 6 8 8 18 6 11 -2 19 3 19 10 0 13 -21
14 -33 2 -13 -12 -24 -7 -25 11 0 11 -2 12 -6 4 -3 -7 0 -18 6 -25 8 -10 1
-13 -29 -13 -21 0 -37 3 -34 8 3 4 -2 8 -11 8 -10 0 -13 5 -9 12 5 7 3 8 -7 2
-8 -5 -17 -9 -21 -9 -3 0 -10 -3 -14 -7 -3 -4 3 -6 14 -3 12 2 24 0 27 -5 3
-5 -4 -7 -15 -5 -11 2 -20 -2 -20 -8 0 -7 -5 -4 -11 6 -8 13 -14 15 -29 7 -23
-12 -30 -13 -30 -2 0 5 7 9 15 10 8 1 22 3 30 4 8 1 15 5 15 10 0 10 -11 10
-30 -2 -9 -6 -20 -5 -29 3 -12 9 -13 9 -7 0 4 -7 3 -13 -3 -13 -6 0 -8 -8 -5
-17 5 -17 5 -17 -6 0 -8 13 -15 15 -30 7 -24 -13 -30 -13 -30 1 0 5 4 8 8 5 4
-2 14 -1 21 4 15 9 6 30 -12 29 -9 0 -8 -2 1 -6 6 -2 10 -9 6 -14 -3 -5 -11
-6 -17 -2 -18 11 -36 12 -42 3 -3 -5 0 -12 6 -16 8 -5 9 -3 4 6 -6 9 -4 11 4
6 14 -9 7 -19 -14 -22 -9 -1 -12 2 -8 9 4 6 0 8 -10 4 -11 -4 -22 2 -32 16 -8
12 -15 16 -15 9 0 -8 -5 -10 -12 -6 -7 5 -8 3 -4 -5 10 -15 -25 -11 -37 4 -5
6 -7 4 -4 -5 2 -8 9 -15 14 -15 6 0 14 -2 17 -5 3 -4 -5 -6 -19 -6 -13 0 -21
4 -18 10 4 5 -1 7 -10 3 -11 -4 -22 2 -32 16 -8 12 -15 16 -15 10 0 -7 5 -15
10 -18 6 -3 10 -10 10 -15 0 -10 -27 -7 -37 5 -4 4 -2 5 4 1 9 -5 11 -2 6 9
-4 12 -8 13 -13 5 -10 -15 -21 -15 -32 2 -8 10 -9 10 -5 -2 2 -8 11 -13 18
-12 8 2 10 0 6 -4 -11 -11 -38 -14 -31 -3 3 5 0 9 -6 9 -6 0 -8 5 -4 13 5 7 0
6 -11 -3 -20 -17 -25 -17 -35 0 -5 9 -13 9 -27 2 -15 -8 -24 -8 -33 1 -10 9
-11 9 -6 0 4 -7 3 -13 -3 -13 -6 0 -8 -8 -5 -17 5 -17 5 -17 -6 0 -8 13 -15
15 -30 7 -24 -13 -30 -13 -30 1 0 5 4 8 8 5 4 -2 14 -1 21 4 15 9 6 30 -12 30
-8 0 -8 -3 2 -9 8 -5 9 -11 3 -15 -6 -3 -18 4 -26 16 -9 12 -16 18 -16 12z
m-121 -37 c8 -10 7 -14 -2 -14 -8 0 -14 6 -14 14 0 7 1 13 2 13 2 0 8 -6 14
-13z m294 0 c4 3 7 1 7 -5 0 -18 -17 -23 -24 -7 -4 12 -10 13 -25 5 -25 -13
-31 -13 -31 1 0 5 4 8 8 5 4 -2 14 -1 22 4 8 5 19 5 26 0 6 -6 14 -7 17 -3z
m247 -8 c0 -5 -7 -9 -15 -9 -15 0 -20 12 -9 23 8 8 24 -1 24 -14z m960 0 c0
-5 -7 -9 -15 -9 -15 0 -20 12 -9 23 8 8 24 -1 24 -14z m398 8 c8 -10 6 -13 -9
-14 -19 -2 -25 8 -12 20 8 9 9 9 21 -6z m-1804 -7 c2 -3 -9 -6 -25 -6 -16 -1
-29 2 -29 6 0 7 46 7 54 0z m290 -18 c3 -5 -1 -9 -9 -9 -8 0 -12 4 -9 9 3 4 7
8 9 8 2 0 6 -4 9 -8z m956 -2 c0 -5 -5 -10 -11 -10 -5 0 -7 5 -4 10 3 6 8 10
11 10 2 0 4 -4 4 -10z m-1344 -139 c0 -16 -3 -27 -6 -25 -7 8 -7 54 0 54 4 0
7 -13 6 -29z m4 -56 c0 -8 -4 -15 -9 -15 -13 0 -22 16 -14 24 11 11 23 6 23
-9z m20 -805 c0 -5 -5 -10 -11 -10 -5 0 -7 5 -4 10 3 6 8 10 11 10 2 0 4 -4 4
-10z m-20 -155 c0 -8 -4 -15 -9 -15 -13 0 -22 16 -14 24 11 11 23 6 23 -9z
m-13 -31 c-3 -3 -2 -17 4 -31 5 -14 5 -22 0 -19 -5 4 -11 0 -14 -6 -3 -7 -3 3
-2 22 4 42 3 40 12 40 3 0 4 -3 0 -6z m33 -774 c0 -5 -5 -10 -11 -10 -5 0 -7
5 -4 10 3 6 8 10 11 10 2 0 4 -4 4 -10z m180 -240 c0 -5 -5 -10 -11 -10 -5 0
-7 5 -4 10 3 6 8 10 11 10 2 0 4 -4 4 -10z m480 0 c0 -5 -5 -10 -11 -10 -5 0
-7 5 -4 10 3 6 8 10 11 10 2 0 4 -4 4 -10z m126 -15 c1 -8 -2 -13 -6 -10 -5 3
-12 1 -15 -5 -5 -8 -11 -8 -20 0 -9 8 -15 8 -20 0 -9 -14 -28 -13 -22 3 2 6
19 12 38 12 24 1 33 5 31 15 -2 8 0 11 4 7 4 -4 9 -14 10 -22z m354 15 c0 -5
-5 -10 -11 -10 -5 0 -7 5 -4 10 3 6 8 10 11 10 2 0 4 -4 4 -10z m480 0 c0 -5
-5 -10 -11 -10 -5 0 -7 5 -4 10 3 6 8 10 11 10 2 0 4 -4 4 -10z m480 0 c0 -5
-5 -10 -11 -10 -5 0 -7 5 -4 10 3 6 8 10 11 10 2 0 4 -4 4 -10z m-1677 -15 c9
-21 -9 -27 -24 -8 -10 12 -10 14 -1 9 6 -4 12 -2 12 3 0 16 7 13 13 -4z m960
0 c9 -21 -9 -27 -24 -8 -10 12 -10 14 -1 9 6 -4 12 -2 12 3 0 16 7 13 13 -4z
m-1253 -3 c0 -5 -7 -9 -15 -9 -8 0 -15 4 -15 9 0 4 7 8 15 8 8 0 15 -4 15 -8z
m132 -3 c2 -2 1 -3 -1 -2 -2 2 -10 -2 -18 -9 -15 -12 -28 -5 -19 10 6 10 32
11 38 1z m348 -1 c0 -6 -3 -8 -7 -5 -3 4 -12 2 -20 -5 -11 -8 -12 -7 -7 6 7
18 34 22 34 4z m480 4 c0 -5 -7 -9 -15 -9 -8 0 -15 4 -15 9 0 4 7 8 15 8 8 0
15 -4 15 -8z m132 -3 c2 -2 1 -3 -1 -2 -2 2 -10 -2 -18 -9 -15 -12 -28 -5 -19
10 6 10 32 11 38 1z m348 3 c0 -5 -7 -9 -15 -9 -8 0 -15 4 -15 9 0 4 7 8 15 8
8 0 15 -4 15 -8z m480 0 c0 -5 -7 -9 -15 -9 -8 0 -15 4 -15 9 0 4 7 8 15 8 8
0 15 -4 15 -8z"/>
<path d="M749 2443 c-13 -16 -12 -17 4 -4 9 7 17 15 17 17 0 8 -8 3 -21 -13z"/>
<path d="M1050 2439 c0 -5 -4 -7 -10 -4 -5 3 -10 2 -10 -4 0 -5 9 -9 19 -8 11
0 17 6 14 14 -6 16 -13 17 -13 2z"/>
<path d="M2010 2439 c0 -5 -4 -7 -10 -4 -5 3 -10 2 -10 -4 0 -5 9 -9 19 -8 11
0 17 6 14 14 -6 16 -13 17 -13 2z"/>
<path d="M2420 2281 c0 -6 5 -13 10 -16 7 -4 7 -12 0 -25 -7 -13 -7 -21 0 -25
5 -3 10 -5 11 -3 7 33 5 58 -4 58 -7 0 -6 4 3 10 13 8 12 10 -2 10 -10 0 -18
-4 -18 -9z"/>
<path d="M149 2163 c-13 -16 -12 -17 4 -4 9 7 17 15 17 17 0 8 -8 3 -21 -13z"/>
<path d="M2420 2121 c0 -6 5 -13 10 -16 7 -4 7 -12 0 -25 -7 -13 -7 -21 0 -25
5 -3 10 -5 11 -3 7 33 5 58 -4 58 -7 0 -6 4 3 10 13 8 12 10 -2 10 -10 0 -18
-4 -18 -9z"/>
<path d="M2420 1960 c0 -5 7 -7 15 -4 8 4 15 8 15 10 0 2 -7 4 -15 4 -8 0 -15
-4 -15 -10z"/>
<path d="M165 1880 c3 -5 0 -10 -7 -10 -10 0 -10 -2 1 -9 11 -7 10 -10 -5 -14
-17 -4 -17 -5 -1 -6 10 0 15 -5 12 -11 -12 -20 -13 -47 -2 -47 8 0 12 20 13
54 0 29 -4 53 -8 53 -5 0 -6 -4 -3 -10z"/>
<path d="M2420 1801 c0 -6 5 -13 10 -16 7 -4 7 -12 0 -24 -10 -19 -3 -34 11
-25 4 2 5 12 2 21 -4 11 -3 14 5 9 8 -5 10 -2 6 8 -3 9 -11 16 -18 16 -6 0 -4
5 4 10 13 8 12 10 -2 10 -10 0 -18 -4 -18 -9z"/>
<path d="M2420 1641 c0 -6 5 -13 10 -16 7 -4 7 -12 0 -25 -7 -13 -7 -21 0 -25
5 -3 10 -5 11 -3 7 33 5 58 -4 58 -7 0 -6 4 3 10 13 8 12 10 -2 10 -10 0 -18
-4 -18 -9z"/>
<path d="M2420 1481 c0 -6 5 -13 10 -16 7 -4 7 -12 0 -24 -10 -19 -3 -34 11
-25 4 2 5 12 2 21 -4 11 -3 14 5 9 8 -5 10 -2 6 8 -3 9 -11 16 -18 16 -6 0 -4
5 4 10 13 8 12 10 -2 10 -10 0 -18 -4 -18 -9z"/>
<path d="M2420 1321 c0 -6 5 -13 10 -16 7 -4 7 -12 0 -25 -7 -13 -7 -21 0 -25
5 -3 10 -5 11 -3 7 33 5 58 -4 58 -7 0 -6 4 3 10 13 8 12 10 -2 10 -10 0 -18
-4 -18 -9z"/>
<path d="M2420 1161 c0 -6 5 -13 10 -16 7 -4 7 -12 0 -25 -7 -13 -7 -21 0 -25
5 -3 10 -5 11 -3 7 33 5 58 -4 58 -7 0 -6 4 3 10 13 8 12 10 -2 10 -10 0 -18
-4 -18 -9z"/>
<path d="M2420 1001 c0 -6 5 -13 10 -16 7 -4 7 -12 0 -25 -7 -13 -7 -21 0 -25
5 -3 10 -5 11 -3 7 33 5 58 -4 58 -7 0 -6 4 3 10 13 8 12 10 -2 10 -10 0 -18
-4 -18 -9z"/>
<path d="M164 921 c4 -5 1 -11 -6 -13 -8 -3 -7 -6 3 -10 10 -4 15 1 16 13 1
10 -3 19 -8 19 -6 0 -8 -4 -5 -9z"/>
<path d="M2420 841 c0 -6 5 -13 10 -16 7 -4 7 -12 0 -25 -7 -13 -7 -21 0 -25
5 -3 10 -5 11 -3 7 33 5 58 -4 58 -7 0 -6 4 3 10 13 8 12 10 -2 10 -10 0 -18
-4 -18 -9z"/>
<path d="M2420 680 c0 -5 7 -7 15 -4 8 4 15 8 15 10 0 2 -7 4 -15 4 -8 0 -15
-4 -15 -10z"/>
<path d="M2420 521 c0 -6 5 -13 10 -16 7 -4 7 -12 0 -24 -10 -19 -3 -34 11
-25 4 2 5 12 2 21 -4 11 -3 14 5 9 8 -5 10 -2 6 8 -3 9 -11 16 -18 16 -6 0 -4
5 4 10 13 8 12 10 -2 10 -10 0 -18 -4 -18 -9z"/>
<path d="M2420 361 c0 -6 5 -13 10 -16 7 -4 7 -12 0 -25 -7 -13 -7 -21 0 -25
5 -3 10 -5 11 -3 7 33 5 58 -4 58 -7 0 -6 4 3 10 13 8 12 10 -2 10 -10 0 -18
-4 -18 -9z"/>
<path d="M159 258 c-10 -32 2 -61 15 -39 4 5 2 12 -4 16 -6 4 -8 11 -5 16 4 5
4 9 1 9 -3 0 -6 -1 -7 -2z"/>
<path d="M1520 171 c-8 -6 -18 -7 -24 -4 -5 4 -6 1 -2 -6 5 -7 11 -10 14 -7 3
3 10 2 16 -4 8 -6 12 -3 12 11 0 10 0 19 -1 19 0 0 -7 -4 -15 -9z"/>
<path d="M510 159 c0 -5 -4 -8 -8 -5 -5 3 -9 -1 -9 -9 0 -10 4 -12 12 -5 7 5
15 7 19 3 4 -4 4 0 0 10 -7 19 -14 22 -14 6z"/>
<path d="M1019 167 c0 -1 -2 -10 -4 -20 -3 -15 -1 -16 13 -5 9 7 18 13 20 14
2 1 -4 4 -13 7 -8 4 -15 5 -16 4z"/>
<path d="M1470 159 c0 -5 -4 -8 -8 -5 -5 3 -9 -1 -9 -9 0 -10 4 -12 12 -5 7 5
15 7 19 3 4 -4 4 0 0 10 -7 19 -14 22 -14 6z"/>
<path d="M315 140 c-3 -5 -1 -10 4 -10 6 0 11 5 11 10 0 6 -2 10 -4 10 -3 0
-8 -4 -11 -10z"/>
<path d="M795 140 c-3 -5 -1 -10 4 -10 6 0 11 5 11 10 0 6 -2 10 -4 10 -3 0
-8 -4 -11 -10z"/>
<path d="M1275 140 c-3 -5 -1 -10 4 -10 6 0 11 5 11 10 0 6 -2 10 -4 10 -3 0
-8 -4 -11 -10z"/>
<path d="M1755 140 c-3 -5 -1 -10 4 -10 6 0 11 5 11 10 0 6 -2 10 -4 10 -3 0
-8 -4 -11 -10z"/>
<path d="M2235 140 c-3 -5 -1 -10 4 -10 6 0 11 5 11 10 0 6 -2 10 -4 10 -3 0
-8 -4 -11 -10z"/>
</g>
</svg>
